<mxfile host="Electron" modified="2024-01-13T11:51:18.094Z" agent="Mozilla/5.0 (Macintosh; Intel Mac OS X 10_15_7) AppleWebKit/537.36 (KHTML, like Gecko) draw.io/22.1.18 Chrome/120.0.6099.199 Electron/28.1.2 Safari/537.36" etag="BYYtIrZuRB5TIu2r0JNy" version="22.1.18" type="device">
  <diagram name="Page-1" id="GKX8D41VJeCy0soWMoFH">
    <mxGraphModel dx="541" dy="401" grid="0" gridSize="10" guides="1" tooltips="1" connect="1" arrows="1" fold="1" page="1" pageScale="1" pageWidth="850" pageHeight="1100" math="0" shadow="0">
      <root>
        <mxCell id="0" />
        <mxCell id="1" parent="0" />
        <mxCell id="5zQo-sAb7z7uBJbEHH4Z-59" value="" style="ellipse;whiteSpace=wrap;html=1;aspect=fixed;hachureGap=4;fontFamily=Architects Daughter;fontSource=https%3A%2F%2Ffonts.googleapis.com%2Fcss%3Ffamily%3DArchitects%2BDaughter;fontSize=20;fillColor=none;strokeColor=#FF6666;strokeWidth=2;container=0;" parent="1" vertex="1">
          <mxGeometry x="264" y="727" width="192" height="192" as="geometry" />
        </mxCell>
        <mxCell id="5zQo-sAb7z7uBJbEHH4Z-61" value="" style="ellipse;whiteSpace=wrap;html=1;aspect=fixed;hachureGap=4;fontFamily=Architects Daughter;fontSource=https%3A%2F%2Ffonts.googleapis.com%2Fcss%3Ffamily%3DArchitects%2BDaughter;fontSize=20;fillColor=none;strokeColor=#00CCCC;strokeWidth=2;" parent="1" vertex="1">
          <mxGeometry x="400" y="783" width="80" height="80" as="geometry" />
        </mxCell>
        <mxCell id="5zQo-sAb7z7uBJbEHH4Z-1" value="" style="group" parent="1" vertex="1" connectable="0">
          <mxGeometry x="210" y="150" width="300" height="20" as="geometry" />
        </mxCell>
        <mxCell id="AFF5KU56LC-4LSk96NdF-1" value="" style="endArrow=none;html=1;rounded=0;hachureGap=4;fontFamily=Architects Daughter;fontSource=https%3A%2F%2Ffonts.googleapis.com%2Fcss%3Ffamily%3DArchitects%2BDaughter;fontSize=16;shadow=0;strokeWidth=2;strokeColor=#1A1A1A;" parent="5zQo-sAb7z7uBJbEHH4Z-1" source="AFF5KU56LC-4LSk96NdF-23" edge="1">
          <mxGeometry width="50" height="50" relative="1" as="geometry">
            <mxPoint y="10" as="sourcePoint" />
            <mxPoint x="300" y="10" as="targetPoint" />
          </mxGeometry>
        </mxCell>
        <mxCell id="AFF5KU56LC-4LSk96NdF-4" value="i" style="edgeLabel;html=1;align=center;verticalAlign=middle;resizable=0;points=[];fontSize=20;fontFamily=Architects Daughter;fontColor=#000000;" parent="AFF5KU56LC-4LSk96NdF-1" vertex="1" connectable="0">
          <mxGeometry x="0.5375" y="-1" relative="1" as="geometry">
            <mxPoint x="-54" y="19" as="offset" />
          </mxGeometry>
        </mxCell>
        <mxCell id="AFF5KU56LC-4LSk96NdF-5" value="" style="shape=waypoint;sketch=0;fillStyle=solid;size=6;pointerEvents=1;points=[];fillColor=none;resizable=0;rotatable=0;perimeter=centerPerimeter;snapToPoint=1;hachureGap=4;jiggle=2;curveFitting=1;fontFamily=Architects Daughter;fontSource=https%3A%2F%2Ffonts.googleapis.com%2Fcss%3Ffamily%3DArchitects%2BDaughter;fontSize=20;" parent="5zQo-sAb7z7uBJbEHH4Z-1" vertex="1">
          <mxGeometry x="60" width="20" height="20" as="geometry" />
        </mxCell>
        <mxCell id="AFF5KU56LC-4LSk96NdF-19" value="" style="endArrow=none;html=1;rounded=0;hachureGap=4;fontFamily=Architects Daughter;fontSource=https%3A%2F%2Ffonts.googleapis.com%2Fcss%3Ffamily%3DArchitects%2BDaughter;fontSize=16;shadow=0;strokeWidth=2;strokeColor=#1A1A1A;" parent="5zQo-sAb7z7uBJbEHH4Z-1" target="AFF5KU56LC-4LSk96NdF-10" edge="1">
          <mxGeometry width="50" height="50" relative="1" as="geometry">
            <mxPoint y="10" as="sourcePoint" />
            <mxPoint x="300" y="10" as="targetPoint" />
          </mxGeometry>
        </mxCell>
        <mxCell id="AFF5KU56LC-4LSk96NdF-20" value="C" style="edgeLabel;html=1;align=center;verticalAlign=middle;resizable=0;points=[];fontSize=20;fontFamily=Architects Daughter;fontColor=#000000;" parent="AFF5KU56LC-4LSk96NdF-19" vertex="1" connectable="0">
          <mxGeometry x="-0.05" y="-2" relative="1" as="geometry">
            <mxPoint x="79" y="18" as="offset" />
          </mxGeometry>
        </mxCell>
        <mxCell id="AFF5KU56LC-4LSk96NdF-21" value="j" style="edgeLabel;html=1;align=center;verticalAlign=middle;resizable=0;points=[];fontSize=20;fontFamily=Architects Daughter;fontColor=#000000;fontStyle=0" parent="AFF5KU56LC-4LSk96NdF-19" vertex="1" connectable="0">
          <mxGeometry x="-0.5375" y="-1" relative="1" as="geometry">
            <mxPoint x="35" y="19" as="offset" />
          </mxGeometry>
        </mxCell>
        <mxCell id="AFF5KU56LC-4LSk96NdF-10" value="" style="shape=waypoint;sketch=0;fillStyle=solid;size=6;pointerEvents=1;points=[];fillColor=none;resizable=0;rotatable=0;perimeter=centerPerimeter;snapToPoint=1;hachureGap=4;jiggle=2;curveFitting=1;fontFamily=Architects Daughter;fontSource=https%3A%2F%2Ffonts.googleapis.com%2Fcss%3Ffamily%3DArchitects%2BDaughter;fontSize=20;" parent="5zQo-sAb7z7uBJbEHH4Z-1" vertex="1">
          <mxGeometry x="140" width="20" height="20" as="geometry" />
        </mxCell>
        <mxCell id="AFF5KU56LC-4LSk96NdF-24" value="" style="endArrow=none;html=1;rounded=0;hachureGap=4;fontFamily=Architects Daughter;fontSource=https%3A%2F%2Ffonts.googleapis.com%2Fcss%3Ffamily%3DArchitects%2BDaughter;fontSize=16;shadow=0;strokeWidth=2;strokeColor=#1A1A1A;" parent="5zQo-sAb7z7uBJbEHH4Z-1" source="AFF5KU56LC-4LSk96NdF-10" target="AFF5KU56LC-4LSk96NdF-23" edge="1">
          <mxGeometry width="50" height="50" relative="1" as="geometry">
            <mxPoint x="150" y="10" as="sourcePoint" />
            <mxPoint x="300" y="10" as="targetPoint" />
          </mxGeometry>
        </mxCell>
        <mxCell id="AFF5KU56LC-4LSk96NdF-23" value="" style="shape=waypoint;sketch=0;fillStyle=solid;size=6;pointerEvents=1;points=[];fillColor=none;resizable=0;rotatable=0;perimeter=centerPerimeter;snapToPoint=1;hachureGap=4;jiggle=2;curveFitting=1;fontFamily=Architects Daughter;fontSource=https%3A%2F%2Ffonts.googleapis.com%2Fcss%3Ffamily%3DArchitects%2BDaughter;fontSize=20;" parent="5zQo-sAb7z7uBJbEHH4Z-1" vertex="1">
          <mxGeometry x="220" width="20" height="20" as="geometry" />
        </mxCell>
        <mxCell id="5zQo-sAb7z7uBJbEHH4Z-14" value="" style="group" parent="1" vertex="1" connectable="0">
          <mxGeometry x="210" y="259" width="300" height="90" as="geometry" />
        </mxCell>
        <mxCell id="5zQo-sAb7z7uBJbEHH4Z-3" value="" style="endArrow=none;html=1;rounded=0;hachureGap=4;fontFamily=Architects Daughter;fontSource=https%3A%2F%2Ffonts.googleapis.com%2Fcss%3Ffamily%3DArchitects%2BDaughter;fontSize=16;shadow=0;strokeWidth=2;strokeColor=#1A1A1A;" parent="5zQo-sAb7z7uBJbEHH4Z-14" source="5zQo-sAb7z7uBJbEHH4Z-11" edge="1">
          <mxGeometry width="50" height="50" relative="1" as="geometry">
            <mxPoint y="45" as="sourcePoint" />
            <mxPoint x="300" y="45" as="targetPoint" />
          </mxGeometry>
        </mxCell>
        <mxCell id="5zQo-sAb7z7uBJbEHH4Z-4" value="i" style="edgeLabel;html=1;align=center;verticalAlign=middle;resizable=0;points=[];fontSize=20;fontFamily=Architects Daughter;fontColor=#000000;container=0;" parent="5zQo-sAb7z7uBJbEHH4Z-3" vertex="1" connectable="0">
          <mxGeometry x="0.5375" y="-1" relative="1" as="geometry">
            <mxPoint x="-54" y="19" as="offset" />
          </mxGeometry>
        </mxCell>
        <mxCell id="5zQo-sAb7z7uBJbEHH4Z-5" value="" style="shape=waypoint;sketch=0;fillStyle=solid;size=6;pointerEvents=1;points=[];fillColor=none;resizable=0;rotatable=0;perimeter=centerPerimeter;snapToPoint=1;hachureGap=4;jiggle=2;curveFitting=1;fontFamily=Architects Daughter;fontSource=https%3A%2F%2Ffonts.googleapis.com%2Fcss%3Ffamily%3DArchitects%2BDaughter;fontSize=20;container=0;" parent="5zQo-sAb7z7uBJbEHH4Z-14" vertex="1">
          <mxGeometry x="60" y="35" width="20" height="20" as="geometry" />
        </mxCell>
        <mxCell id="5zQo-sAb7z7uBJbEHH4Z-6" value="" style="endArrow=none;html=1;rounded=0;hachureGap=4;fontFamily=Architects Daughter;fontSource=https%3A%2F%2Ffonts.googleapis.com%2Fcss%3Ffamily%3DArchitects%2BDaughter;fontSize=16;shadow=0;strokeWidth=2;strokeColor=#1A1A1A;" parent="5zQo-sAb7z7uBJbEHH4Z-14" target="5zQo-sAb7z7uBJbEHH4Z-9" edge="1">
          <mxGeometry width="50" height="50" relative="1" as="geometry">
            <mxPoint y="45" as="sourcePoint" />
            <mxPoint x="300" y="45" as="targetPoint" />
          </mxGeometry>
        </mxCell>
        <mxCell id="5zQo-sAb7z7uBJbEHH4Z-7" value="C" style="edgeLabel;html=1;align=center;verticalAlign=middle;resizable=0;points=[];fontSize=20;fontFamily=Architects Daughter;fontColor=#000000;container=0;" parent="5zQo-sAb7z7uBJbEHH4Z-6" vertex="1" connectable="0">
          <mxGeometry x="-0.05" y="-2" relative="1" as="geometry">
            <mxPoint x="79" y="18" as="offset" />
          </mxGeometry>
        </mxCell>
        <mxCell id="5zQo-sAb7z7uBJbEHH4Z-8" value="j" style="edgeLabel;html=1;align=center;verticalAlign=middle;resizable=0;points=[];fontSize=20;fontFamily=Architects Daughter;fontColor=#000000;fontStyle=0;container=0;" parent="5zQo-sAb7z7uBJbEHH4Z-6" vertex="1" connectable="0">
          <mxGeometry x="-0.5375" y="-1" relative="1" as="geometry">
            <mxPoint x="35" y="19" as="offset" />
          </mxGeometry>
        </mxCell>
        <mxCell id="5zQo-sAb7z7uBJbEHH4Z-9" value="" style="shape=waypoint;sketch=0;fillStyle=solid;size=6;pointerEvents=1;points=[];fillColor=none;resizable=0;rotatable=0;perimeter=centerPerimeter;snapToPoint=1;hachureGap=4;jiggle=2;curveFitting=1;fontFamily=Architects Daughter;fontSource=https%3A%2F%2Ffonts.googleapis.com%2Fcss%3Ffamily%3DArchitects%2BDaughter;fontSize=20;container=0;" parent="5zQo-sAb7z7uBJbEHH4Z-14" vertex="1">
          <mxGeometry x="140" y="35" width="20" height="20" as="geometry" />
        </mxCell>
        <mxCell id="5zQo-sAb7z7uBJbEHH4Z-10" value="" style="endArrow=none;html=1;rounded=0;hachureGap=4;fontFamily=Architects Daughter;fontSource=https%3A%2F%2Ffonts.googleapis.com%2Fcss%3Ffamily%3DArchitects%2BDaughter;fontSize=16;shadow=0;strokeWidth=2;strokeColor=#1A1A1A;" parent="5zQo-sAb7z7uBJbEHH4Z-14" source="5zQo-sAb7z7uBJbEHH4Z-9" target="5zQo-sAb7z7uBJbEHH4Z-11" edge="1">
          <mxGeometry width="50" height="50" relative="1" as="geometry">
            <mxPoint x="150" y="45" as="sourcePoint" />
            <mxPoint x="300" y="45" as="targetPoint" />
          </mxGeometry>
        </mxCell>
        <mxCell id="5zQo-sAb7z7uBJbEHH4Z-11" value="" style="shape=waypoint;sketch=0;fillStyle=solid;size=6;pointerEvents=1;points=[];fillColor=none;resizable=0;rotatable=0;perimeter=centerPerimeter;snapToPoint=1;hachureGap=4;jiggle=2;curveFitting=1;fontFamily=Architects Daughter;fontSource=https%3A%2F%2Ffonts.googleapis.com%2Fcss%3Ffamily%3DArchitects%2BDaughter;fontSize=20;container=0;" parent="5zQo-sAb7z7uBJbEHH4Z-14" vertex="1">
          <mxGeometry x="220" y="35" width="20" height="20" as="geometry" />
        </mxCell>
        <mxCell id="5zQo-sAb7z7uBJbEHH4Z-12" value="" style="ellipse;whiteSpace=wrap;html=1;aspect=fixed;hachureGap=4;fontFamily=Architects Daughter;fontSource=https%3A%2F%2Ffonts.googleapis.com%2Fcss%3Ffamily%3DArchitects%2BDaughter;fontSize=20;fillColor=none;strokeColor=#FF6666;strokeWidth=2;container=0;" parent="5zQo-sAb7z7uBJbEHH4Z-14" vertex="1">
          <mxGeometry x="105" width="90" height="90" as="geometry" />
        </mxCell>
        <mxCell id="5zQo-sAb7z7uBJbEHH4Z-13" value="r" style="text;html=1;strokeColor=none;fillColor=none;align=center;verticalAlign=middle;whiteSpace=wrap;rounded=0;fontSize=20;fontFamily=Architects Daughter;fontColor=#FF6666;container=0;" parent="5zQo-sAb7z7uBJbEHH4Z-14" vertex="1">
          <mxGeometry x="174" y="18" width="60" height="30" as="geometry" />
        </mxCell>
        <mxCell id="IKUO-Ke9aAJ7_2bAT4HW-1" value="" style="shape=waypoint;sketch=0;fillStyle=solid;size=6;pointerEvents=1;points=[];fillColor=none;resizable=0;rotatable=0;perimeter=centerPerimeter;snapToPoint=1;hachureGap=4;jiggle=2;curveFitting=1;fontFamily=Architects Daughter;fontSource=https%3A%2F%2Ffonts.googleapis.com%2Fcss%3Ffamily%3DArchitects%2BDaughter;fontSize=20;" vertex="1" parent="5zQo-sAb7z7uBJbEHH4Z-14">
          <mxGeometry x="185" y="35" width="20" height="20" as="geometry" />
        </mxCell>
        <mxCell id="5zQo-sAb7z7uBJbEHH4Z-48" value="" style="group" parent="1" vertex="1" connectable="0">
          <mxGeometry x="210" y="394" width="330" height="270" as="geometry" />
        </mxCell>
        <mxCell id="5zQo-sAb7z7uBJbEHH4Z-26" value="" style="endArrow=none;html=1;rounded=0;hachureGap=4;fontFamily=Architects Daughter;fontSource=https%3A%2F%2Ffonts.googleapis.com%2Fcss%3Ffamily%3DArchitects%2BDaughter;fontSize=16;shadow=0;strokeWidth=2;strokeColor=#1A1A1A;" parent="5zQo-sAb7z7uBJbEHH4Z-48" source="5zQo-sAb7z7uBJbEHH4Z-34" edge="1">
          <mxGeometry width="50" height="50" relative="1" as="geometry">
            <mxPoint y="135" as="sourcePoint" />
            <mxPoint x="300" y="135" as="targetPoint" />
          </mxGeometry>
        </mxCell>
        <mxCell id="5zQo-sAb7z7uBJbEHH4Z-27" value="i" style="edgeLabel;html=1;align=center;verticalAlign=middle;resizable=0;points=[];fontSize=20;fontFamily=Architects Daughter;fontColor=#000000;container=0;" parent="5zQo-sAb7z7uBJbEHH4Z-26" vertex="1" connectable="0">
          <mxGeometry x="0.5375" y="-1" relative="1" as="geometry">
            <mxPoint x="-54" y="19" as="offset" />
          </mxGeometry>
        </mxCell>
        <mxCell id="5zQo-sAb7z7uBJbEHH4Z-28" value="" style="shape=waypoint;sketch=0;fillStyle=solid;size=6;pointerEvents=1;points=[];fillColor=none;resizable=0;rotatable=0;perimeter=centerPerimeter;snapToPoint=1;hachureGap=4;jiggle=2;curveFitting=1;fontFamily=Architects Daughter;fontSource=https%3A%2F%2Ffonts.googleapis.com%2Fcss%3Ffamily%3DArchitects%2BDaughter;fontSize=20;container=0;" parent="5zQo-sAb7z7uBJbEHH4Z-48" vertex="1">
          <mxGeometry x="60" y="125" width="20" height="20" as="geometry" />
        </mxCell>
        <mxCell id="5zQo-sAb7z7uBJbEHH4Z-29" value="" style="endArrow=none;html=1;rounded=0;hachureGap=4;fontFamily=Architects Daughter;fontSource=https%3A%2F%2Ffonts.googleapis.com%2Fcss%3Ffamily%3DArchitects%2BDaughter;fontSize=16;shadow=0;strokeWidth=2;strokeColor=#1A1A1A;" parent="5zQo-sAb7z7uBJbEHH4Z-48" target="5zQo-sAb7z7uBJbEHH4Z-32" edge="1">
          <mxGeometry width="50" height="50" relative="1" as="geometry">
            <mxPoint y="135" as="sourcePoint" />
            <mxPoint x="300" y="135" as="targetPoint" />
          </mxGeometry>
        </mxCell>
        <mxCell id="5zQo-sAb7z7uBJbEHH4Z-30" value="C" style="edgeLabel;html=1;align=center;verticalAlign=middle;resizable=0;points=[];fontSize=20;fontFamily=Architects Daughter;fontColor=#000000;container=0;" parent="5zQo-sAb7z7uBJbEHH4Z-29" vertex="1" connectable="0">
          <mxGeometry x="-0.05" y="-2" relative="1" as="geometry">
            <mxPoint x="79" y="18" as="offset" />
          </mxGeometry>
        </mxCell>
        <mxCell id="5zQo-sAb7z7uBJbEHH4Z-31" value="j" style="edgeLabel;html=1;align=center;verticalAlign=middle;resizable=0;points=[];fontSize=20;fontFamily=Architects Daughter;fontColor=#000000;fontStyle=0;container=0;" parent="5zQo-sAb7z7uBJbEHH4Z-29" vertex="1" connectable="0">
          <mxGeometry x="-0.5375" y="-1" relative="1" as="geometry">
            <mxPoint x="35" y="19" as="offset" />
          </mxGeometry>
        </mxCell>
        <mxCell id="5zQo-sAb7z7uBJbEHH4Z-32" value="" style="shape=waypoint;sketch=0;fillStyle=solid;size=6;pointerEvents=1;points=[];fillColor=none;resizable=0;rotatable=0;perimeter=centerPerimeter;snapToPoint=1;hachureGap=4;jiggle=2;curveFitting=1;fontFamily=Architects Daughter;fontSource=https%3A%2F%2Ffonts.googleapis.com%2Fcss%3Ffamily%3DArchitects%2BDaughter;fontSize=20;container=0;" parent="5zQo-sAb7z7uBJbEHH4Z-48" vertex="1">
          <mxGeometry x="140" y="125" width="20" height="20" as="geometry" />
        </mxCell>
        <mxCell id="5zQo-sAb7z7uBJbEHH4Z-33" value="" style="endArrow=none;html=1;rounded=0;hachureGap=4;fontFamily=Architects Daughter;fontSource=https%3A%2F%2Ffonts.googleapis.com%2Fcss%3Ffamily%3DArchitects%2BDaughter;fontSize=16;shadow=0;strokeWidth=2;strokeColor=#1A1A1A;" parent="5zQo-sAb7z7uBJbEHH4Z-48" source="5zQo-sAb7z7uBJbEHH4Z-32" target="5zQo-sAb7z7uBJbEHH4Z-34" edge="1">
          <mxGeometry width="50" height="50" relative="1" as="geometry">
            <mxPoint x="150" y="135" as="sourcePoint" />
            <mxPoint x="300" y="135" as="targetPoint" />
          </mxGeometry>
        </mxCell>
        <mxCell id="5zQo-sAb7z7uBJbEHH4Z-34" value="" style="shape=waypoint;sketch=0;fillStyle=solid;size=6;pointerEvents=1;points=[];fillColor=none;resizable=0;rotatable=0;perimeter=centerPerimeter;snapToPoint=1;hachureGap=4;jiggle=2;curveFitting=1;fontFamily=Architects Daughter;fontSource=https%3A%2F%2Ffonts.googleapis.com%2Fcss%3Ffamily%3DArchitects%2BDaughter;fontSize=20;container=0;" parent="5zQo-sAb7z7uBJbEHH4Z-48" vertex="1">
          <mxGeometry x="220" y="125" width="20" height="20" as="geometry" />
        </mxCell>
        <mxCell id="5zQo-sAb7z7uBJbEHH4Z-35" value="" style="ellipse;whiteSpace=wrap;html=1;aspect=fixed;hachureGap=4;fontFamily=Architects Daughter;fontSource=https%3A%2F%2Ffonts.googleapis.com%2Fcss%3Ffamily%3DArchitects%2BDaughter;fontSize=20;fillColor=none;strokeColor=#FF6666;strokeWidth=2;container=0;" parent="5zQo-sAb7z7uBJbEHH4Z-48" vertex="1">
          <mxGeometry x="15" width="270" height="270" as="geometry" />
        </mxCell>
        <mxCell id="5zQo-sAb7z7uBJbEHH4Z-36" value="&lt;font style=&quot;font-size: 18px;&quot;&gt;r&lt;/font&gt;" style="text;html=1;strokeColor=none;fillColor=none;align=center;verticalAlign=middle;whiteSpace=wrap;rounded=0;fontSize=20;fontFamily=Architects Daughter;fontColor=#FF6666;container=0;" parent="5zQo-sAb7z7uBJbEHH4Z-48" vertex="1">
          <mxGeometry x="264" y="109" width="60" height="30" as="geometry" />
        </mxCell>
        <mxCell id="5zQo-sAb7z7uBJbEHH4Z-37" value="" style="ellipse;whiteSpace=wrap;html=1;aspect=fixed;hachureGap=4;fontFamily=Architects Daughter;fontSource=https%3A%2F%2Ffonts.googleapis.com%2Fcss%3Ffamily%3DArchitects%2BDaughter;fontSize=20;fillColor=none;strokeColor=#97D077;strokeWidth=2;" parent="5zQo-sAb7z7uBJbEHH4Z-48" vertex="1">
          <mxGeometry x="190" y="95" width="80" height="80" as="geometry" />
        </mxCell>
        <mxCell id="5zQo-sAb7z7uBJbEHH4Z-38" value="" style="ellipse;whiteSpace=wrap;html=1;aspect=fixed;hachureGap=4;fontFamily=Architects Daughter;fontSource=https%3A%2F%2Ffonts.googleapis.com%2Fcss%3Ffamily%3DArchitects%2BDaughter;fontSize=20;fillColor=none;strokeColor=#00CCCC;strokeWidth=2;" parent="5zQo-sAb7z7uBJbEHH4Z-48" vertex="1">
          <mxGeometry x="30" y="95" width="80" height="80" as="geometry" />
        </mxCell>
        <mxCell id="5zQo-sAb7z7uBJbEHH4Z-40" value="" style="shape=waypoint;sketch=0;fillStyle=solid;size=6;pointerEvents=1;points=[];fillColor=none;resizable=0;rotatable=0;perimeter=centerPerimeter;snapToPoint=1;hachureGap=4;jiggle=2;curveFitting=1;fontFamily=Architects Daughter;fontSource=https%3A%2F%2Ffonts.googleapis.com%2Fcss%3Ffamily%3DArchitects%2BDaughter;fontSize=20;" parent="5zQo-sAb7z7uBJbEHH4Z-48" vertex="1">
          <mxGeometry x="20" y="125" width="20" height="20" as="geometry" />
        </mxCell>
        <mxCell id="5zQo-sAb7z7uBJbEHH4Z-41" value="" style="shape=waypoint;sketch=0;fillStyle=solid;size=6;pointerEvents=1;points=[];fillColor=none;resizable=0;rotatable=0;perimeter=centerPerimeter;snapToPoint=1;hachureGap=4;jiggle=2;curveFitting=1;fontFamily=Architects Daughter;fontSource=https%3A%2F%2Ffonts.googleapis.com%2Fcss%3Ffamily%3DArchitects%2BDaughter;fontSize=20;" parent="5zQo-sAb7z7uBJbEHH4Z-48" vertex="1">
          <mxGeometry x="100" y="125" width="20" height="20" as="geometry" />
        </mxCell>
        <mxCell id="5zQo-sAb7z7uBJbEHH4Z-42" value="" style="shape=waypoint;sketch=0;fillStyle=solid;size=6;pointerEvents=1;points=[];fillColor=none;resizable=0;rotatable=0;perimeter=centerPerimeter;snapToPoint=1;hachureGap=4;jiggle=2;curveFitting=1;fontFamily=Architects Daughter;fontSource=https%3A%2F%2Ffonts.googleapis.com%2Fcss%3Ffamily%3DArchitects%2BDaughter;fontSize=20;" parent="5zQo-sAb7z7uBJbEHH4Z-48" vertex="1">
          <mxGeometry x="180" y="125" width="20" height="20" as="geometry" />
        </mxCell>
        <mxCell id="5zQo-sAb7z7uBJbEHH4Z-43" value="" style="shape=waypoint;sketch=0;fillStyle=solid;size=6;pointerEvents=1;points=[];fillColor=none;resizable=0;rotatable=0;perimeter=centerPerimeter;snapToPoint=1;hachureGap=4;jiggle=2;curveFitting=1;fontFamily=Architects Daughter;fontSource=https%3A%2F%2Ffonts.googleapis.com%2Fcss%3Ffamily%3DArchitects%2BDaughter;fontSize=20;" parent="5zQo-sAb7z7uBJbEHH4Z-48" vertex="1">
          <mxGeometry x="260" y="125" width="20" height="20" as="geometry" />
        </mxCell>
        <mxCell id="5zQo-sAb7z7uBJbEHH4Z-44" value="&lt;font style=&quot;font-size: 18px;&quot;&gt;a&lt;/font&gt;" style="text;html=1;strokeColor=none;fillColor=none;align=center;verticalAlign=middle;whiteSpace=wrap;rounded=0;fontSize=20;fontFamily=Architects Daughter;" parent="5zQo-sAb7z7uBJbEHH4Z-48" vertex="1">
          <mxGeometry y="106" width="60" height="30" as="geometry" />
        </mxCell>
        <mxCell id="5zQo-sAb7z7uBJbEHH4Z-45" value="&lt;font style=&quot;font-size: 15px;&quot;&gt;b&lt;/font&gt;" style="text;html=1;strokeColor=none;fillColor=none;align=center;verticalAlign=middle;whiteSpace=wrap;rounded=0;fontSize=20;fontFamily=Architects Daughter;" parent="5zQo-sAb7z7uBJbEHH4Z-48" vertex="1">
          <mxGeometry x="80" y="106" width="60" height="30" as="geometry" />
        </mxCell>
        <mxCell id="5zQo-sAb7z7uBJbEHH4Z-46" value="&lt;font style=&quot;font-size: 18px;&quot;&gt;c&lt;/font&gt;" style="text;html=1;strokeColor=none;fillColor=none;align=center;verticalAlign=middle;whiteSpace=wrap;rounded=0;fontSize=20;fontFamily=Architects Daughter;" parent="5zQo-sAb7z7uBJbEHH4Z-48" vertex="1">
          <mxGeometry x="160" y="106" width="60" height="30" as="geometry" />
        </mxCell>
        <mxCell id="5zQo-sAb7z7uBJbEHH4Z-47" value="&lt;font style=&quot;font-size: 17px;&quot;&gt;d&lt;/font&gt;" style="text;html=1;strokeColor=none;fillColor=none;align=center;verticalAlign=middle;whiteSpace=wrap;rounded=0;fontSize=20;fontFamily=Architects Daughter;" parent="5zQo-sAb7z7uBJbEHH4Z-48" vertex="1">
          <mxGeometry x="240" y="106" width="60" height="30" as="geometry" />
        </mxCell>
        <mxCell id="IKUO-Ke9aAJ7_2bAT4HW-2" value="" style="shape=waypoint;sketch=0;fillStyle=solid;size=6;pointerEvents=1;points=[];fillColor=none;resizable=0;rotatable=0;perimeter=centerPerimeter;snapToPoint=1;hachureGap=4;jiggle=2;curveFitting=1;fontFamily=Architects Daughter;fontSource=https%3A%2F%2Ffonts.googleapis.com%2Fcss%3Ffamily%3DArchitects%2BDaughter;fontSize=20;" vertex="1" parent="5zQo-sAb7z7uBJbEHH4Z-48">
          <mxGeometry x="276" y="125" width="20" height="20" as="geometry" />
        </mxCell>
        <mxCell id="IKUO-Ke9aAJ7_2bAT4HW-3" value="&lt;span style=&quot;font-size: 18px;&quot;&gt;l&lt;br&gt;&lt;/span&gt;" style="text;html=1;strokeColor=none;fillColor=none;align=center;verticalAlign=middle;whiteSpace=wrap;rounded=0;fontSize=20;fontFamily=Architects Daughter;fontColor=#FF6666;container=0;" vertex="1" parent="5zQo-sAb7z7uBJbEHH4Z-48">
          <mxGeometry x="-20" y="109" width="60" height="30" as="geometry" />
        </mxCell>
        <mxCell id="IKUO-Ke9aAJ7_2bAT4HW-4" value="" style="shape=waypoint;sketch=0;fillStyle=solid;size=6;pointerEvents=1;points=[];fillColor=none;resizable=0;rotatable=0;perimeter=centerPerimeter;snapToPoint=1;hachureGap=4;jiggle=2;curveFitting=1;fontFamily=Architects Daughter;fontSource=https%3A%2F%2Ffonts.googleapis.com%2Fcss%3Ffamily%3DArchitects%2BDaughter;fontSize=20;" vertex="1" parent="5zQo-sAb7z7uBJbEHH4Z-48">
          <mxGeometry x="6" y="125" width="20" height="20" as="geometry" />
        </mxCell>
        <mxCell id="5zQo-sAb7z7uBJbEHH4Z-50" value="" style="endArrow=none;html=1;rounded=0;hachureGap=4;fontFamily=Architects Daughter;fontSource=https%3A%2F%2Ffonts.googleapis.com%2Fcss%3Ffamily%3DArchitects%2BDaughter;fontSize=16;shadow=0;strokeWidth=2;strokeColor=#1A1A1A;" parent="1" source="5zQo-sAb7z7uBJbEHH4Z-58" edge="1">
          <mxGeometry width="50" height="50" relative="1" as="geometry">
            <mxPoint x="210" y="823" as="sourcePoint" />
            <mxPoint x="510" y="823" as="targetPoint" />
          </mxGeometry>
        </mxCell>
        <mxCell id="5zQo-sAb7z7uBJbEHH4Z-51" value="i" style="edgeLabel;html=1;align=center;verticalAlign=middle;resizable=0;points=[];fontSize=20;fontFamily=Architects Daughter;fontColor=#000000;container=0;" parent="5zQo-sAb7z7uBJbEHH4Z-50" vertex="1" connectable="0">
          <mxGeometry x="0.5375" y="-1" relative="1" as="geometry">
            <mxPoint x="-54" y="23" as="offset" />
          </mxGeometry>
        </mxCell>
        <mxCell id="5zQo-sAb7z7uBJbEHH4Z-52" value="" style="shape=waypoint;sketch=0;fillStyle=solid;size=6;pointerEvents=1;points=[];fillColor=none;resizable=0;rotatable=0;perimeter=centerPerimeter;snapToPoint=1;hachureGap=4;jiggle=2;curveFitting=1;fontFamily=Architects Daughter;fontSource=https%3A%2F%2Ffonts.googleapis.com%2Fcss%3Ffamily%3DArchitects%2BDaughter;fontSize=20;container=0;" parent="1" vertex="1">
          <mxGeometry x="270" y="813" width="20" height="20" as="geometry" />
        </mxCell>
        <mxCell id="5zQo-sAb7z7uBJbEHH4Z-53" value="" style="endArrow=none;html=1;rounded=0;hachureGap=4;fontFamily=Architects Daughter;fontSource=https%3A%2F%2Ffonts.googleapis.com%2Fcss%3Ffamily%3DArchitects%2BDaughter;fontSize=16;shadow=0;strokeWidth=2;strokeColor=#1A1A1A;" parent="1" target="5zQo-sAb7z7uBJbEHH4Z-56" edge="1">
          <mxGeometry width="50" height="50" relative="1" as="geometry">
            <mxPoint x="210" y="823" as="sourcePoint" />
            <mxPoint x="510" y="823" as="targetPoint" />
          </mxGeometry>
        </mxCell>
        <mxCell id="5zQo-sAb7z7uBJbEHH4Z-54" value="C" style="edgeLabel;html=1;align=center;verticalAlign=middle;resizable=0;points=[];fontSize=20;fontFamily=Architects Daughter;fontColor=#000000;container=0;" parent="5zQo-sAb7z7uBJbEHH4Z-53" vertex="1" connectable="0">
          <mxGeometry x="-0.05" y="-2" relative="1" as="geometry">
            <mxPoint x="79" y="18" as="offset" />
          </mxGeometry>
        </mxCell>
        <mxCell id="5zQo-sAb7z7uBJbEHH4Z-55" value="j" style="edgeLabel;html=1;align=center;verticalAlign=middle;resizable=0;points=[];fontSize=20;fontFamily=Architects Daughter;fontColor=#000000;fontStyle=0;container=0;" parent="5zQo-sAb7z7uBJbEHH4Z-53" vertex="1" connectable="0">
          <mxGeometry x="-0.5375" y="-1" relative="1" as="geometry">
            <mxPoint x="35" y="19" as="offset" />
          </mxGeometry>
        </mxCell>
        <mxCell id="5zQo-sAb7z7uBJbEHH4Z-56" value="" style="shape=waypoint;sketch=0;fillStyle=solid;size=6;pointerEvents=1;points=[];fillColor=none;resizable=0;rotatable=0;perimeter=centerPerimeter;snapToPoint=1;hachureGap=4;jiggle=2;curveFitting=1;fontFamily=Architects Daughter;fontSource=https%3A%2F%2Ffonts.googleapis.com%2Fcss%3Ffamily%3DArchitects%2BDaughter;fontSize=20;container=0;" parent="1" vertex="1">
          <mxGeometry x="350" y="813" width="20" height="20" as="geometry" />
        </mxCell>
        <mxCell id="5zQo-sAb7z7uBJbEHH4Z-57" value="" style="endArrow=none;html=1;rounded=0;hachureGap=4;fontFamily=Architects Daughter;fontSource=https%3A%2F%2Ffonts.googleapis.com%2Fcss%3Ffamily%3DArchitects%2BDaughter;fontSize=16;shadow=0;strokeWidth=2;strokeColor=#1A1A1A;" parent="1" source="5zQo-sAb7z7uBJbEHH4Z-56" target="5zQo-sAb7z7uBJbEHH4Z-58" edge="1">
          <mxGeometry width="50" height="50" relative="1" as="geometry">
            <mxPoint x="360" y="823" as="sourcePoint" />
            <mxPoint x="510" y="823" as="targetPoint" />
          </mxGeometry>
        </mxCell>
        <mxCell id="5zQo-sAb7z7uBJbEHH4Z-58" value="" style="shape=waypoint;sketch=0;fillStyle=solid;size=6;pointerEvents=1;points=[];fillColor=none;resizable=0;rotatable=0;perimeter=centerPerimeter;snapToPoint=1;hachureGap=4;jiggle=2;curveFitting=1;fontFamily=Architects Daughter;fontSource=https%3A%2F%2Ffonts.googleapis.com%2Fcss%3Ffamily%3DArchitects%2BDaughter;fontSize=20;container=0;" parent="1" vertex="1">
          <mxGeometry x="430" y="813" width="20" height="20" as="geometry" />
        </mxCell>
        <mxCell id="5zQo-sAb7z7uBJbEHH4Z-60" value="&lt;font style=&quot;font-size: 18px;&quot;&gt;r&lt;/font&gt;" style="text;html=1;strokeColor=none;fillColor=none;align=center;verticalAlign=middle;whiteSpace=wrap;rounded=0;fontSize=20;fontFamily=Architects Daughter;fontColor=#FF6666;container=0;" parent="1" vertex="1">
          <mxGeometry x="433" y="815" width="60" height="30" as="geometry" />
        </mxCell>
        <mxCell id="5zQo-sAb7z7uBJbEHH4Z-62" value="" style="ellipse;whiteSpace=wrap;html=1;aspect=fixed;hachureGap=4;fontFamily=Architects Daughter;fontSource=https%3A%2F%2Ffonts.googleapis.com%2Fcss%3Ffamily%3DArchitects%2BDaughter;fontSize=20;fillColor=none;strokeColor=#00CCCC;strokeWidth=2;" parent="1" vertex="1">
          <mxGeometry x="240" y="783" width="80" height="80" as="geometry" />
        </mxCell>
        <mxCell id="5zQo-sAb7z7uBJbEHH4Z-63" value="" style="shape=waypoint;sketch=0;fillStyle=solid;size=6;pointerEvents=1;points=[];fillColor=none;resizable=0;rotatable=0;perimeter=centerPerimeter;snapToPoint=1;hachureGap=4;jiggle=2;curveFitting=1;fontFamily=Architects Daughter;fontSource=https%3A%2F%2Ffonts.googleapis.com%2Fcss%3Ffamily%3DArchitects%2BDaughter;fontSize=20;" parent="1" vertex="1">
          <mxGeometry x="230" y="813" width="20" height="20" as="geometry" />
        </mxCell>
        <mxCell id="5zQo-sAb7z7uBJbEHH4Z-64" value="" style="shape=waypoint;sketch=0;fillStyle=solid;size=6;pointerEvents=1;points=[];fillColor=none;resizable=0;rotatable=0;perimeter=centerPerimeter;snapToPoint=1;hachureGap=4;jiggle=2;curveFitting=1;fontFamily=Architects Daughter;fontSource=https%3A%2F%2Ffonts.googleapis.com%2Fcss%3Ffamily%3DArchitects%2BDaughter;fontSize=20;" parent="1" vertex="1">
          <mxGeometry x="310" y="813" width="20" height="20" as="geometry" />
        </mxCell>
        <mxCell id="5zQo-sAb7z7uBJbEHH4Z-65" value="" style="shape=waypoint;sketch=0;fillStyle=solid;size=6;pointerEvents=1;points=[];fillColor=none;resizable=0;rotatable=0;perimeter=centerPerimeter;snapToPoint=1;hachureGap=4;jiggle=2;curveFitting=1;fontFamily=Architects Daughter;fontSource=https%3A%2F%2Ffonts.googleapis.com%2Fcss%3Ffamily%3DArchitects%2BDaughter;fontSize=20;" parent="1" vertex="1">
          <mxGeometry x="390" y="813" width="20" height="20" as="geometry" />
        </mxCell>
        <mxCell id="5zQo-sAb7z7uBJbEHH4Z-66" value="" style="shape=waypoint;sketch=0;fillStyle=solid;size=6;pointerEvents=1;points=[];fillColor=none;resizable=0;rotatable=0;perimeter=centerPerimeter;snapToPoint=1;hachureGap=4;jiggle=2;curveFitting=1;fontFamily=Architects Daughter;fontSource=https%3A%2F%2Ffonts.googleapis.com%2Fcss%3Ffamily%3DArchitects%2BDaughter;fontSize=20;" parent="1" vertex="1">
          <mxGeometry x="470" y="813" width="20" height="20" as="geometry" />
        </mxCell>
        <mxCell id="5zQo-sAb7z7uBJbEHH4Z-67" value="&lt;font style=&quot;font-size: 18px;&quot;&gt;a&lt;/font&gt;" style="text;html=1;strokeColor=none;fillColor=none;align=center;verticalAlign=middle;whiteSpace=wrap;rounded=0;fontSize=20;fontFamily=Architects Daughter;" parent="1" vertex="1">
          <mxGeometry x="210" y="794" width="60" height="30" as="geometry" />
        </mxCell>
        <mxCell id="5zQo-sAb7z7uBJbEHH4Z-68" value="&lt;font style=&quot;font-size: 15px;&quot;&gt;b&lt;/font&gt;" style="text;html=1;strokeColor=none;fillColor=none;align=center;verticalAlign=middle;whiteSpace=wrap;rounded=0;fontSize=20;fontFamily=Architects Daughter;" parent="1" vertex="1">
          <mxGeometry x="290" y="794" width="60" height="30" as="geometry" />
        </mxCell>
        <mxCell id="5zQo-sAb7z7uBJbEHH4Z-69" value="&lt;font style=&quot;font-size: 18px;&quot;&gt;c&lt;/font&gt;" style="text;html=1;strokeColor=none;fillColor=none;align=center;verticalAlign=middle;whiteSpace=wrap;rounded=0;fontSize=20;fontFamily=Architects Daughter;" parent="1" vertex="1">
          <mxGeometry x="370" y="794" width="60" height="30" as="geometry" />
        </mxCell>
        <mxCell id="5zQo-sAb7z7uBJbEHH4Z-70" value="&lt;font style=&quot;font-size: 17px;&quot;&gt;d&lt;/font&gt;" style="text;html=1;strokeColor=none;fillColor=none;align=center;verticalAlign=middle;whiteSpace=wrap;rounded=0;fontSize=20;fontFamily=Architects Daughter;" parent="1" vertex="1">
          <mxGeometry x="450" y="794" width="60" height="30" as="geometry" />
        </mxCell>
        <mxCell id="5zQo-sAb7z7uBJbEHH4Z-72" value="" style="ellipse;whiteSpace=wrap;html=1;aspect=fixed;hachureGap=4;fontFamily=Architects Daughter;fontSource=https%3A%2F%2Ffonts.googleapis.com%2Fcss%3Ffamily%3DArchitects%2BDaughter;fontSize=20;fillColor=none;strokeWidth=2;strokeColor=#97D077;" parent="1" vertex="1">
          <mxGeometry x="425.5" y="808.5" width="29" height="29" as="geometry" />
        </mxCell>
        <mxCell id="5zQo-sAb7z7uBJbEHH4Z-73" value="&lt;font style=&quot;font-size: 18px;&quot;&gt;e&lt;/font&gt;" style="text;html=1;strokeColor=none;fillColor=none;align=center;verticalAlign=middle;whiteSpace=wrap;rounded=0;fontSize=20;fontFamily=Architects Daughter;" parent="1" vertex="1">
          <mxGeometry x="425.5" y="794" width="60" height="30" as="geometry" />
        </mxCell>
        <mxCell id="5zQo-sAb7z7uBJbEHH4Z-74" value="" style="shape=waypoint;sketch=0;fillStyle=solid;size=6;pointerEvents=1;points=[];fillColor=none;resizable=0;rotatable=0;perimeter=centerPerimeter;snapToPoint=1;hachureGap=4;jiggle=2;curveFitting=1;fontFamily=Architects Daughter;fontSource=https%3A%2F%2Ffonts.googleapis.com%2Fcss%3Ffamily%3DArchitects%2BDaughter;fontSize=20;" parent="1" vertex="1">
          <mxGeometry x="445.5" y="813" width="20" height="20" as="geometry" />
        </mxCell>
        <mxCell id="5zQo-sAb7z7uBJbEHH4Z-75" value="" style="shape=waypoint;sketch=0;fillStyle=solid;size=6;pointerEvents=1;points=[];fillColor=none;resizable=0;rotatable=0;perimeter=centerPerimeter;snapToPoint=1;hachureGap=4;jiggle=2;curveFitting=1;fontFamily=Architects Daughter;fontSource=https%3A%2F%2Ffonts.googleapis.com%2Fcss%3Ffamily%3DArchitects%2BDaughter;fontSize=20;" parent="1" vertex="1">
          <mxGeometry x="254" y="813" width="20" height="20" as="geometry" />
        </mxCell>
        <mxCell id="5zQo-sAb7z7uBJbEHH4Z-76" value="&lt;font style=&quot;font-size: 15px;&quot;&gt;f&lt;/font&gt;" style="text;html=1;strokeColor=none;fillColor=none;align=center;verticalAlign=middle;whiteSpace=wrap;rounded=0;fontSize=15;fontFamily=Architects Daughter;" parent="1" vertex="1">
          <mxGeometry x="234" y="796" width="60" height="30" as="geometry" />
        </mxCell>
        <mxCell id="5zQo-sAb7z7uBJbEHH4Z-78" value="" style="shape=waypoint;sketch=0;fillStyle=solid;size=6;pointerEvents=1;points=[];fillColor=none;resizable=0;rotatable=0;perimeter=centerPerimeter;snapToPoint=1;hachureGap=4;jiggle=2;curveFitting=1;fontFamily=Architects Daughter;fontSource=https%3A%2F%2Ffonts.googleapis.com%2Fcss%3Ffamily%3DArchitects%2BDaughter;fontSize=20;" parent="1" vertex="1">
          <mxGeometry x="415" y="813" width="20" height="20" as="geometry" />
        </mxCell>
        <mxCell id="5zQo-sAb7z7uBJbEHH4Z-79" value="&lt;font style=&quot;font-size: 16px;&quot;&gt;g&lt;/font&gt;" style="text;html=1;strokeColor=none;fillColor=none;align=center;verticalAlign=middle;whiteSpace=wrap;rounded=0;fontSize=20;fontFamily=Architects Daughter;" parent="1" vertex="1">
          <mxGeometry x="396" y="791" width="60" height="30" as="geometry" />
        </mxCell>
        <mxCell id="IKUO-Ke9aAJ7_2bAT4HW-5" value="&lt;font style=&quot;font-size: 18px;&quot;&gt;l&lt;/font&gt;" style="text;html=1;strokeColor=none;fillColor=none;align=center;verticalAlign=middle;whiteSpace=wrap;rounded=0;fontSize=20;fontFamily=Architects Daughter;fontColor=#FF6666;container=0;" vertex="1" parent="1">
          <mxGeometry x="228" y="818" width="60" height="30" as="geometry" />
        </mxCell>
      </root>
    </mxGraphModel>
  </diagram>
</mxfile>
